PathFileType	4	(X/Y/Z)	/Users/itak/Documents/Research/Walk-IL/dataset/trc/00450_00167.trc
DataRate	CameraRate	NumFrames	NumMarkers	Units	OrigDataRate	OrigDataStartFrame	OrigNumFrames
100.000000	100.000000	4	53	mm	100.000000	163	436
Frame#	Time	RPSI			LPSI			L3			STRN			T10			C7			CLAV			RBAK			LBAK			LSHO			LUPA			LAEL			LAOL			LWTS			LWPS			LFRA			LIFD			LHPS			LHTS			RSHO			RUPA			RAEL			RAOL			RWTS			RWPS			RFRA			RIFD			RHTS			RHPS			RBHD			LFHD			RFHD			LBHD			LHIP			RHIP			RASI			LASI			LKNE			LTHI			LANK			LTIP			LTOE			LMT1			LMT5			LHEE			RKNE			RTHI			RANK			RTIP			RTOE			RMT1			RMT5			RHEE			
		X1	Y1	Z1	X2	Y2	Z2	X3	Y3	Z3	X4	Y4	Z4	X5	Y5	Z5	X6	Y6	Z6	X7	Y7	Z7	X8	Y8	Z8	X9	Y9	Z9	X10	Y10	Z10	X11	Y11	Z11	X12	Y12	Z12	X13	Y13	Z13	X14	Y14	Z14	X15	Y15	Z15	X16	Y16	Z16	X17	Y17	Z17	X18	Y18	Z18	X19	Y19	Z19	X20	Y20	Z20	X21	Y21	Z21	X22	Y22	Z22	X23	Y23	Z23	X24	Y24	Z24	X25	Y25	Z25	X26	Y26	Z26	X27	Y27	Z27	X28	Y28	Z28	X29	Y29	Z29	X30	Y30	Z30	X31	Y31	Z31	X32	Y32	Z32	X33	Y33	Z33	X34	Y34	Z34	X35	Y35	Z35	X36	Y36	Z36	X37	Y37	Z37	X38	Y38	Z38	X39	Y39	Z39	X40	Y40	Z40	X41	Y41	Z41	X42	Y42	Z42	X43	Y43	Z43	X44	Y44	Z44	X45	Y45	Z45	X46	Y46	Z46	X47	Y47	Z47	X48	Y48	Z48	X49	Y49	Z49	X50	Y50	Z50	X51	Y51	Z51	X52	Y52	Z52	X53	Y53	Z53	

164	1.63	-1106.343383789062	892.1961669921875	-206.9919281005859	-1031.200439453125	879.9117431640625	-329.5622863769531	-1048.8486328125	993.2039794921875	-232.9651336669922	-762.7601318359375	1125.777587890625	-71.55708312988281	-1030.83349609375	1115.570068359375	-219.7230224609375	-939.5471801757812	1358.602661132812	-124.1706314086914	-776.4694213867188	1245.518188476562	-70.96144866943359	-1053.822631835938	1242.5927734375	-92.96736907958984	-930.85107421875	1333.622192382812	-232.3249206542969	-797.8937377929688	1346.6796875	-256.907958984375	-797.7742309570312	1263.928466796875	-381.8150329589844	-832.3844604492188	1078.529541015625	-484.9718933105469	-935.1671142578125	1094.7939453125	-469.9971618652344	-846.6600341796875	866.7540283203125	-450.4507141113281	-866.6743774414062	866.975341796875	-521.9521484375	-836.3787231445312	988.8651733398438	-503.118408203125	-880.3912353515625	708.4896240234375	-479.6098327636719	-878.1187744140625	789.7260131835938	-532.4327392578125	-847.1256713867188	779.6076049804688	-468.0999450683594	-959.7022094726562	1295.46142578125	42.67513656616211	-1020.7333984375	1230.325317382812	86.38962554931641	-1102.598754882812	960.6380004882812	109.7781448364258	-1131.354125976562	949.9618530273438	48.70568466186523	-1017.877685546875	748.2499389648438	109.5850830078125	-1100.901245117188	753.4547119140625	139.7372131347656	-1110.731811523438	903.1973876953125	119.0084686279297	-1062.2490234375	597.6802978515625	131.4539337158203	-1033.848510742188	650.3458862304688	133.752685546875	-1104.882080078125	669.340576171875	154.4601593017578	-918.2232055664062	1532.038330078125	-9.233668327331543	-733.7272338867188	1564.637939453125	-97.46578216552734	-788.3272094726562	1566.103637695312	21.85814666748047	-859.6267700195312	1532.537475585938	-177.6880340576172	-858.5609741210938	761.0154418945312	-362.3251037597656	-1074.40087890625	781.534912109375	-23.91218566894531	-955.0145874023438	814.9614868164062	-27.75766372680664	-822.8213500976562	797.7222290039062	-245.0779724121094	-757.3002319335938	366.6780700683594	-311.4182434082031	-739.546630859375	519.8818359375	-312.1062622070312	-1140.299194335938	258.3451843261719	-504.4275817871094	-885.10498046875	301.7791137695312	-392.5531616210938	-1079.012451171875	54.77983856201172	-418.567626953125	-1111.564819335938	118.7066879272461	-393.2246398925781	-1082.299682617188	123.5433502197266	-502.9046936035156	-1174.839111328125	307.4176635742188	-460.9019165039062	-990.2362670898438	386.9436645507812	-49.68391799926758	-1026.008056640625	644.0557250976562	0.4404292404651642	-1207.08837890625	47.14173889160156	-186.7054138183594	-1049.76025390625	254.5919189453125	-80.61763763427734	-997.789306640625	48.28285217285156	-117.6568450927734	-1031.146484375	52.70032119750977	-181.6510772705078	-1106.209228515625	46.7479362487793	-98.40968322753906	-1243.017578125	44.64012145996094	-260.4939270019531	
165	1.64	-1092.3876953125	894.1892700195312	-200.4411926269531	-1016.545227050781	881.8451538085938	-322.4237365722656	-1035.523681640625	994.8770751953125	-225.5691986083984	-748.8829345703125	1129.025756835938	-65.19520568847656	-1017.765808105469	1117.3974609375	-211.9277648925781	-926.8497314453125	1360.837158203125	-117.2980346679688	-763.1157836914062	1248.711059570312	-64.90561676025391	-1040.837036132812	1244.549926757812	-85.23405456542969	-918.5582275390625	1335.2822265625	-224.7166748046875	-786.139892578125	1348.811889648438	-250.8473205566406	-788.9578247070312	1267.998046875	-376.3780822753906	-830.87353515625	1085.341430664062	-482.5011291503906	-932.5018310546875	1104.458129882812	-463.3478698730469	-853.1685791015625	871.5444946289062	-457.6110229492188	-875.5452270507812	876.1133422851562	-528.6531982421875	-838.8727416992188	996.451904296875	-504.66796875	-896.6255493164062	715.9033813476562	-493.6143798828125	-891.3236083984375	799.6953125	-542.6280517578125	-858.5660400390625	784.7596435546875	-479.4447326660156	-946.5514526367188	1298.847900390625	49.66434478759766	-1007.077026367188	1233.166748046875	93.48207092285156	-1081.298828125	960.779052734375	118.6923828125	-1109.692993164062	946.7302856445312	57.98153305053711	-977.2448120117188	758.2545776367188	122.8003768920898	-1060.238159179688	755.2067260742188	152.3307800292969	-1084.456665039062	902.8811645507812	129.0760345458984	-1004.467834472656	604.519287109375	149.3814697265625	-982.3213500976562	660.0551147460938	150.3696594238281	-1054.846435546875	671.65966796875	169.7058258056641	-904.49462890625	1534.66259765625	-2.76767635345459	-719.9873657226562	1566.81494140625	-91.12564849853516	-774.4524536132812	1568.355712890625	28.24059104919434	-846.0244140625	1535.11962890625	-171.2848663330078	-842.4857177734375	764.559326171875	-354.1280517578125	-1062.90625	782.726318359375	-18.32119941711426	-942.8621826171875	815.2281494140625	-20.79282569885254	-808.6371459960938	801.3134155273438	-236.6026153564453	-731.0581665039062	373.0450134277344	-296.635986328125	-716.9359741210938	526.8923950195312	-299.6455078125	-1111.398193359375	252.4472961425781	-488.7433166503906	-857.3978881835938	304.6620178222656	-377.2389221191406	-1037.631591796875	55.29074478149414	-398.16162109375	-1075.197143554688	116.9881210327148	-374.743408203125	-1045.241088867188	121.831413269043	-484.1321105957031	-1148.926391601562	300.2713012695312	-446.2796936035156	-988.9835815429688	387.0705261230469	-48.61349868774414	-1017.947021484375	644.2974853515625	4.313437938690186	-1207.091064453125	48.21352386474609	-186.2265625	-1049.133666992188	255.0670776367188	-79.99565887451172	-997.9028930664062	48.23550415039062	-117.650993347168	-1031.22900390625	52.78156280517578	-181.4301300048828	-1106.257568359375	46.63352584838867	-98.38382720947266	-1243.276611328125	46.8642463684082	-260.055419921875	
166	1.65	-1077.759033203125	897.2974243164062	-193.8319549560547	-1001.280639648438	884.8524780273438	-315.2508544921875	-1021.480529785156	997.4734497070312	-217.8446807861328	-734.4675903320312	1133.608520507812	-59.20172119140625	-1004.313293457031	1120.25146484375	-203.7897796630859	-913.865966796875	1364.303588867188	-110.6113128662109	-749.3006591796875	1253.223754882812	-59.25859451293945	-1027.442504882812	1247.803100585938	-77.39865875244141	-906.1000366210938	1338.053588867188	-217.1730499267578	-774.3203735351562	1352.300170898438	-245.0098266601562	-780.1381225585938	1274.088134765625	-371.1554260253906	-829.0703735351562	1094.530517578125	-480.1767272949219	-929.3934326171875	1115.915283203125	-456.9461364746094	-857.9906005859375	879.7570190429688	-462.6524047851562	-882.5717163085938	887.721923828125	-532.9369506835938	-840.5186157226562	1006.557067871094	-505.3688354492188	-909.9046020507812	726.6235961914062	-502.7303466796875	-902.1139526367188	812.06494140625	-549.1935424804688	-867.5730590820312	793.4464721679688	-487.3629150390625	-932.7979125976562	1303.80517578125	56.42885589599609	-992.8123168945312	1237.85400390625	100.6155700683594	-1059.730834960938	963.081298828125	127.4490737915039	-1087.618530273438	945.8671875	67.17818450927734	-937.230224609375	771.9729614257812	134.5638732910156	-1019.356079101562	760.1384887695312	163.3796691894531	-1057.861938476562	905.1226196289062	138.7086334228516	-946.3602905273438	616.6498413085938	162.8213806152344	-931.0916137695312	674.3257446289062	163.6820983886719	-1004.376586914062	677.7594604492188	181.5994415283203	-890.3185424804688	1538.543090820312	3.360504627227783	-705.76220703125	1570.197387695312	-85.04899597167969	-760.0892333984375	1571.759399414062	34.34402084350586	-831.9481201171875	1539.072998046875	-165.1877136230469	-825.6656494140625	769.2416381835938	-345.7015991210938	-1051.01708984375	784.96728515625	-12.82827949523926	-930.313720703125	816.410400390625	-13.76633262634277	-793.9425048828125	805.9130249023438	-227.8644409179688	-705.6121826171875	380.3401489257812	-282.0449829101562	-694.7981567382812	534.8195190429688	-287.2179870605469	-1082.036254882812	245.1297302246094	-472.9693603515625	-830.046142578125	307.6457824707031	-361.8627319335938	-995.7012939453125	55.63982391357422	-377.0123901367188	-1038.209228515625	114.7070922851562	-355.7560424804688	-1007.5185546875	119.4579010009766	-464.8470153808594	-1122.664428710938	291.4234619140625	-431.648681640625	-988.0592041015625	388.5121154785156	-47.94455718994141	-1009.678771972656	645.5950317382812	8.01502799987793	-1207.065795898438	49.80783462524414	-185.4358673095703	-1048.716552734375	256.7015686035156	-79.51754760742188	-998.0022583007812	48.20290756225586	-117.6557693481445	-1031.27490234375	52.89399719238281	-181.1422271728516	-1106.223266601562	46.50884628295898	-98.32144927978516	-1243.544311523438	49.91458892822266	-259.2828674316406	
167	1.66	-1062.443603515625	901.430908203125	-187.2626800537109	-985.3331909179688	888.8917846679688	-308.1104125976562	-1006.698608398438	1000.963012695312	-209.8888854980469	-719.5660400390625	1139.3427734375	-53.50040817260742	-990.4295043945312	1124.068481445312	-195.3837890625	-900.5789184570312	1368.8955078125	-104.0770797729492	-735.0238037109375	1258.878540039062	-53.95695877075195	-1013.6123046875	1252.23974609375	-69.48112487792969	-893.4256591796875	1341.894165039062	-209.6899871826172	-762.3637084960938	1357.052490234375	-239.3212738037109	-771.212890625	1282.05810546875	-366.0467834472656	-826.86669921875	1105.845825195312	-477.7803649902344	-925.774169921875	1128.964965820312	-450.67333984375	-860.8190307617188	890.85546875	-465.45703125	-887.5624389648438	901.1959838867188	-534.757568359375	-841.1796264648438	1018.788024902344	-505.0736999511719	-919.524169921875	739.7687377929688	-506.8858032226562	-910.1844482421875	826.0653686523438	-552.0906982421875	-873.7234497070312	804.9976806640625	-491.7735900878906	-918.39501953125	1310.103881835938	63.00077819824219	-977.8539428710938	1244.105712890625	107.8121948242188	-1037.836791992188	967.3511352539062	136.2039337158203	-1065.26318359375	947.2124633789062	76.5115966796875	-898.2775268554688	788.8860473632812	144.7941741943359	-978.5881958007812	768.0722045898438	172.9500122070312	-1030.989135742188	909.7421264648438	148.0193481445312	-888.9722900390625	633.6438598632812	171.8865966796875	-880.9132690429688	692.646240234375	173.7070617675781	-954.057861328125	687.452880859375	190.3076019287109	-875.7142944335938	1543.55517578125	9.151382446289062	-691.0703735351562	1574.676147460938	-79.23667907714844	-745.2764892578125	1576.216064453125	40.16867065429688	-817.4078979492188	1544.2509765625	-159.3970489501953	-808.0930786132812	774.9617309570312	-337.03271484375	-1038.706787109375	788.2479248046875	-7.432106971740723	-917.374267578125	818.5319213867188	-6.639364242553711	-778.7699584960938	811.384765625	-218.8333282470703	-681.0488891601562	388.3378295898438	-267.6828918457031	-673.185791015625	543.4396362304688	-274.8454284667969	-1052.1171875	236.4781951904297	-457.0896606445312	-803.0835571289062	310.5882568359375	-346.4419860839844	-953.4649658203125	55.87934494018555	-355.3331298828125	-1000.723815917969	111.8913116455078	-336.3742980957031	-969.2492065429688	116.5180053710938	-445.1711730957031	-1095.891235351562	280.9464416503906	-416.9623107910156	-987.16015625	391.3267211914062	-47.48100662231445	-1001.006896972656	647.9931030273438	11.66689300537109	-1206.944091796875	52.10054397583008	-184.2653961181641	-1048.280029296875	259.5792541503906	-79.02175140380859	-998.0701904296875	48.18341445922852	-117.6501083374023	-1031.238647460938	53.04707717895508	-180.7677154541016	-1106.054565429688	46.38489151000977	-98.19432830810547	-1243.712646484375	54.02985000610352	-258.0874633789062	
